<svg width="43" height="50" viewBox="0 0 43 50" fill="none" xmlns="http://www.w3.org/2000/svg">
<path fill-rule="evenodd" clip-rule="evenodd" d="M10.7828 0.159087C10.3388 0.398692 9.96456 0.791181 9.77094 1.22018C9.6176 1.55991 9.59393 1.87361 9.59212 3.59371L9.59002 5.57573H5.28653C0.522919 5.57573 0.494578 5.57916 0.162792 6.20068C0.0117372 6.48355 0 7.4126 0 19.0828C0 30.7764 0.0114508 31.6817 0.163555 31.9666C0.366138 32.3461 0.837719 32.7617 1.17628 32.8591C1.31655 32.8995 8.26803 32.9325 16.624 32.9325C30.5064 32.9325 31.8301 32.9188 31.9715 32.7739C32.1113 32.6305 32.1277 31.8626 32.1419 24.8013L32.1576 16.9876L33.9229 16.5188C34.8938 16.2611 35.7634 16.0498 35.8552 16.0494C36.0124 16.0486 36.0223 16.3927 36.0237 21.8968C36.0245 25.1134 36.0567 27.7935 36.0952 27.8527C36.1338 27.9119 36.2658 28.0148 36.3887 28.0811C36.7389 28.2704 37.1413 28.055 37.267 27.6109C37.3354 27.3691 37.3584 23.9434 37.339 16.8806C37.3126 7.31952 37.2976 6.48169 37.1476 6.20068C36.8159 5.57916 36.7875 5.57573 32.0239 5.57573H27.7204V3.61505C27.7204 1.48063 27.6657 1.18778 27.1667 0.648378C27.0252 0.495493 26.75 0.28623 26.5553 0.183459C26.2155 0.00424494 25.8971 -0.00309588 18.6352 0.000623469C11.9313 0.00414706 11.0364 0.0221565 10.7828 0.159087ZM26.1383 1.55531L26.3845 1.79267V3.68415V5.57573H18.6552H10.9259V3.68415C10.9259 1.84797 10.9322 1.78669 11.1406 1.58957C11.2588 1.47789 11.4412 1.36465 11.5462 1.33793C11.6512 1.3112 14.9219 1.29584 18.8146 1.30377L25.8921 1.31806L26.1383 1.55531ZM35.9995 10.7877C36.0132 12.8738 35.9997 14.5805 35.9694 14.5805C35.9391 14.5805 32.0442 15.5979 27.314 16.8414C21.3463 18.4102 18.6245 19.0857 18.4221 19.048C18.174 19.0017 2.86451 15.0089 1.69376 14.6851L1.28821 14.5729V10.8247C1.28821 8.76322 1.31693 7.04703 1.35205 7.01101C1.38726 6.97499 9.19163 6.95659 18.6952 6.9702L35.9745 6.99496L35.9995 10.7877ZM18.0953 9.88891C17.0983 10.0924 16.2339 10.7877 15.8104 11.7269C15.6119 12.1669 15.5603 12.4318 15.5586 13.0191C15.5567 13.6577 15.5986 13.8457 15.8673 14.4055C16.423 15.5632 17.3986 16.1869 18.6598 16.1907C19.9415 16.1946 20.9832 15.4844 21.5355 14.2301C21.8423 13.5333 21.8286 12.4686 21.5034 11.7399C20.909 10.4083 19.4453 9.61338 18.0953 9.88891ZM19.4955 11.4214C19.9033 11.6184 20.2373 12.0733 20.379 12.6247C20.776 14.1693 18.9838 15.4455 17.6816 14.5454C16.7251 13.8843 16.5971 12.5806 17.4074 11.7496C17.9769 11.1653 18.7232 11.0481 19.4955 11.4214ZM3.03398 16.4441C3.88448 16.6615 4.7201 16.8853 4.89101 16.9413L5.2018 17.043L5.17728 24.3027L5.15285 31.5622L3.41348 31.5889C1.77621 31.614 1.66284 31.6039 1.48116 31.4176C1.29079 31.2223 1.28821 31.1173 1.28821 23.6342C1.28821 18.4246 1.31941 16.0486 1.38793 16.0486C1.4428 16.0486 2.18347 16.2266 3.03398 16.4441ZM30.7739 24.4661V31.6112H18.6552H6.53648V24.5151C6.53648 19.4516 6.56635 17.4189 6.64068 17.4189C6.69794 17.4189 9.35356 18.1016 12.542 18.936C15.7305 19.7704 18.4855 20.4523 18.6642 20.4512C18.8866 20.4498 30.2592 17.5128 30.7501 17.33C30.7632 17.3251 30.7739 20.5363 30.7739 24.4661ZM39.0531 28.8173C38.857 28.8943 38.5072 29.0909 38.2759 29.2542L37.8554 29.551L37.4071 29.3943C36.389 29.0385 34.9888 29.4077 34.2986 30.2139C33.8402 30.7495 33.6844 31.1607 32.8198 34.1175C32.3651 35.6729 31.9767 36.9636 31.9566 36.9857C31.9366 37.0078 31.8433 36.9544 31.7492 36.8671C31.6551 36.7797 31.3649 36.6075 31.1044 36.4843C30.6481 36.2685 30.5218 36.2593 27.6423 36.2295L24.6537 36.1988L24.0162 35.7771C21.5864 34.1703 19.3176 33.7351 17.1339 34.457C16.7957 34.5688 16.0657 34.8721 15.5117 35.1311C13.8098 35.9266 13.7925 35.9301 12.015 35.8554L10.4488 35.7896V35.1869C10.4488 34.7159 10.4064 34.5377 10.2543 34.3703C10.06 34.1563 10.0543 34.156 5.96719 34.156H1.87459L1.67687 34.4139C1.48068 34.6697 1.47906 34.7333 1.47906 42.0973C1.47906 49.3213 1.48412 49.528 1.66456 49.7131C1.76666 49.8178 1.99205 49.9303 2.16553 49.963C2.33901 49.9959 4.19175 50.0094 6.28256 49.993L10.0841 49.9632L10.2665 49.7322C10.4083 49.5525 10.4488 49.3443 10.4488 48.796V48.091L11.0452 48.1236C12.2753 48.1907 13.7912 48.3767 15.3631 48.6535C20.1862 49.5029 19.8754 49.4662 22.2813 49.4701C24.0849 49.4732 24.6911 49.4389 25.3791 49.2955C26.9771 48.9622 27.9746 48.5707 29.5334 47.6649C30.3469 47.1921 31.5493 46.5067 32.2053 46.1418C37.5346 43.1771 38.4443 42.3256 40.2528 38.6094C40.9326 37.2125 42.7901 32.9905 42.9359 32.5107C42.9737 32.3863 43.0024 31.9973 42.9998 31.6463C42.9915 30.5358 42.4135 29.5584 41.4452 29.0179C41.0284 28.7852 40.8037 28.7301 40.1743 28.7062C39.6768 28.6872 39.2851 28.726 39.0531 28.8173ZM40.7743 30.1827C41.3401 30.4846 41.6742 31.048 41.6742 31.7001C41.6742 32.0602 41.4775 32.6045 40.6977 34.4015C39.5687 37.0032 38.4931 39.2163 37.9151 40.1265C37.3839 40.9632 36.3394 42.0283 35.4497 42.6406C35.0561 42.9114 33.1667 44.0254 31.2511 45.116C29.3354 46.2067 27.7252 47.1334 27.6727 47.1756C27.5447 47.2783 26.1169 47.7183 25.2871 47.9106C24.3692 48.1234 21.4171 48.2115 20.2119 48.0622C19.6969 47.9982 18.1805 47.7519 16.8422 47.5146C13.9106 46.9949 13.0424 46.8758 11.5995 46.795L10.4965 46.7333L10.4717 41.9567L10.447 37.1801L12.2371 37.2097C14.2499 37.2428 14.1661 37.2602 15.902 36.4504C17.5152 35.6978 18.159 35.5128 19.18 35.5083C20.6044 35.5021 21.8608 35.9507 23.4426 37.0303L24.2504 37.5817L27.1544 37.5823C28.8821 37.5826 30.2039 37.6243 30.4179 37.6853C30.6157 37.7416 30.9252 37.9392 31.1056 38.1242C31.9218 38.9614 31.7163 40.2509 30.6814 40.7872L30.2564 41.0074H24.8375C19.5458 41.0074 19.4141 41.012 19.2278 41.2032C18.8641 41.5762 19.0401 42.2037 19.5446 42.3328C19.659 42.3621 22.2217 42.3731 25.2394 42.3574C31.2747 42.3259 30.9119 42.3621 31.7934 41.7048C32.2588 41.3577 32.6379 40.7393 32.8641 39.9579L33.0247 39.4028L33.9157 39.0326C34.9848 38.5881 35.3839 38.2933 35.6557 37.7473C35.768 37.5216 36.4758 35.8835 37.2285 34.1071C37.9812 32.3306 38.6738 30.7715 38.7678 30.6424C39.1629 30.0997 40.1814 29.8662 40.7743 30.1827ZM37.0526 30.716C37.147 30.7774 36.8565 31.5524 35.8338 33.9685C35.0953 35.7129 34.4169 37.2106 34.3263 37.2964C34.1081 37.5031 33.1595 37.89 33.1595 37.7724C33.1595 37.6922 33.7389 35.6933 34.696 32.4716C34.9981 31.4548 35.2968 30.9855 35.7789 30.7701C36.1046 30.6246 36.8626 30.5924 37.0526 30.716ZM9.11291 42.0855V48.6445L5.9878 48.6188L2.86269 48.593L2.83817 42.0596L2.81365 35.5263H5.96327H9.11291V42.0855Z" fill="#B29037"/>
</svg>
