<svg width="53" height="50" viewBox="0 0 53 50" fill="none" xmlns="http://www.w3.org/2000/svg">
<path d="M26.5036 0C16.7675 0 8.84668 7.93017 8.84668 17.6777C8.84668 24.1736 12.3379 30.0582 17.9978 33.1725V37.6936H17.9941V41.3061H17.989V46.7858H23.0913C23.1971 48.576 24.6846 50 26.4985 50C28.3124 50 29.8 48.576 29.9056 46.7858H35.0046V43.1732H35.0098V37.6936H35.0092V33.1725C40.6692 30.0582 44.1604 24.1736 44.1604 17.6777C44.1604 7.93017 36.2396 0 26.5036 0ZM19.859 39.5607H33.1449V41.3061H19.859V39.5607ZM26.4985 48.133C25.6286 48.133 25.0617 47.4672 24.9657 46.7858H28.0324C27.9322 47.5448 27.2833 48.133 26.4985 48.133ZM33.1397 44.9187H19.8539V43.1732H33.1397V44.9187ZM33.654 31.7781L33.1443 32.0378V37.6423H27.4327V23.8463L32.9639 18.3084C33.328 17.9438 33.328 17.3528 32.9638 16.9881C32.5998 16.6237 32.0093 16.6236 31.6451 16.9882L26.5002 22.1395L21.3553 16.9883C20.9912 16.6237 20.4007 16.6236 20.0366 16.9882C19.6723 17.3528 19.6723 17.9438 20.0365 18.3084L25.5677 23.8463V37.6423H19.8628V32.0378L19.3531 31.7781C14.0228 29.0632 10.7116 23.6601 10.7116 17.6777C10.7116 8.95971 17.7959 1.86717 26.5036 1.86717C35.2113 1.86717 42.2955 8.95971 42.2955 17.6777C42.2955 23.6601 38.9843 29.0632 33.654 31.7781Z" fill="#B29037"/>
<path d="M31.4246 5.66016C30.9096 5.66016 30.4922 6.07809 30.4922 6.59372C30.4922 7.10936 30.9096 7.52726 31.4246 7.52726C32.8914 7.52726 36.3292 9.29134 36.3292 12.7123C36.3292 13.228 36.7466 13.6459 37.2616 13.6459C37.7767 13.6459 38.1941 13.228 38.1941 12.7123C38.1941 8.08219 33.7871 5.66016 31.4246 5.66016Z" fill="#B29037"/>
<path d="M6.09271 19.4648C6.09271 18.9492 5.67527 18.5312 5.16026 18.5312H0.932449C0.417442 18.5312 0 18.9492 0 19.4648C0 19.9804 0.417442 20.3983 0.932449 20.3983H5.16026C5.67527 20.3983 6.09271 19.9804 6.09271 19.4648Z" fill="#B29037"/>
<path d="M6.4122 7.25335C6.59433 7.43566 6.83292 7.52683 7.0716 7.52683C7.31019 7.52683 7.54888 7.43566 7.73089 7.25347C8.09514 6.88878 8.09514 6.29777 7.731 5.93326L4.74178 2.94036C4.37782 2.57595 3.78732 2.57583 3.42309 2.94025C3.05886 3.3049 3.05886 3.89594 3.42297 4.26048L6.4122 7.25335Z" fill="#B29037"/>
<path d="M6.41261 31.6756L3.42309 34.6685C3.05886 35.0332 3.05886 35.6242 3.42297 35.9888C3.6051 36.1712 3.84366 36.2624 4.08237 36.2624C4.32094 36.2624 4.55965 36.1712 4.74163 35.9888L7.73118 32.996C8.09541 32.6313 8.09541 32.0403 7.7313 31.6759C7.36722 31.3112 6.77672 31.3112 6.41261 31.6756Z" fill="#B29037"/>
<path d="M52.0676 18.5312H47.8399C47.3249 18.5312 46.9075 18.9492 46.9075 19.4648C46.9075 19.9804 47.3249 20.3983 47.8399 20.3983H52.0676C52.5827 20.3983 53.0001 19.9804 53.0001 19.4648C53.0001 18.9492 52.5827 18.5312 52.0676 18.5312Z" fill="#B29037"/>
<path d="M45.9286 7.52689C46.1672 7.52689 46.4059 7.43572 46.588 7.25352L49.5774 4.26065C49.9415 3.896 49.9415 3.30496 49.5774 2.9403C49.2131 2.57589 48.6228 2.57589 48.2585 2.9403L45.2692 5.93317C44.9051 6.29786 44.9051 6.88887 45.2692 7.25352C45.4513 7.43572 45.69 7.52689 45.9286 7.52689Z" fill="#B29037"/>
<path d="M46.5874 31.6756C46.2234 31.3112 45.6329 31.3112 45.2687 31.6759C44.9046 32.0403 44.9046 32.6313 45.2688 32.996L48.2583 35.9888C48.4403 36.1712 48.679 36.2624 48.9176 36.2624C49.1562 36.2624 49.3949 36.1712 49.577 35.9888C49.9411 35.6242 49.9411 35.0332 49.5769 34.6685L46.5874 31.6756Z" fill="#B29037"/>
</svg>
