<svg width="46" height="50" viewBox="0 0 46 50" fill="none" xmlns="http://www.w3.org/2000/svg">
<path d="M23 1C23.7348 1 24.3055 1.5834 24.3057 2.27246C24.3057 4.68628 25.9749 7.01542 28.4912 8.75879C31.3825 10.7618 35.2707 11.8828 39.166 11.8828C40.5576 11.8828 41.9567 11.6823 43.3242 11.2891C43.7243 11.174 44.1549 11.2529 44.4844 11.4971C44.8129 11.7407 45.0009 12.1179 45 12.5127C44.9714 23.573 40.3411 32.4467 37.1641 37.2305L36.5498 38.1318C34.3477 41.283 31.8948 43.9803 29.4697 45.9404C28.575 46.6637 27.486 47.4397 26.3379 48.0312C25.1797 48.628 24.0321 49 23 49C21.9677 49 20.8194 48.628 19.6611 48.0312C18.5133 47.4398 17.4249 46.6636 16.5303 45.9404C14.1052 43.9801 11.6525 41.2829 9.4502 38.1318C6.29687 33.6197 1.03046 24.3103 1 12.5127C0.999203 12.167 1.14308 11.8346 1.39941 11.5938L1.51562 11.4971C1.84522 11.2528 2.27545 11.174 2.67578 11.2891C4.04319 11.6823 5.44229 11.8828 6.83398 11.8828C10.7292 11.8828 14.6175 10.7618 17.5088 8.75879C20.025 7.01546 21.6943 4.68628 21.6943 2.27246C21.6945 1.58331 22.265 1 23 1ZM23 13.3936C19.353 13.3936 16.3712 16.3115 16.3711 19.9414C16.3711 22.1445 17.4705 24.0842 19.1494 25.2695C15.6813 26.7419 13.2441 30.1425 13.2441 34.1191V35.1191H32.7559V34.1191C32.7559 30.1419 30.3176 26.7415 26.8486 25.2695C28.5283 24.0843 29.6289 22.1451 29.6289 19.9414C29.6288 16.3115 26.6471 13.3936 23 13.3936Z" stroke="#B29037" stroke-width="2"/>
</svg>
