<svg width="50" height="50" viewBox="0 0 50 50" fill="none" xmlns="http://www.w3.org/2000/svg">
<path d="M7.54956 14.9971C7.41895 14.8681 7.20569 14.8702 7.0769 14.998L4.09448 17.959L4.09351 17.96C3.98505 18.0675 3.9704 18.2325 4.05347 18.3564L4.09448 18.4062L5.323 19.627L8.76831 16.208L7.54956 14.9971Z" stroke="#B29037" stroke-width="2"/>
<path d="M12.3877 0.999997C11.7258 0.999997 11.1992 1.53391 11.1992 2.1709L11.1992 11.0332C11.2555 11.0815 11.3116 11.1334 11.3652 11.1865L11.7754 11.5928L11.7764 11.5937L14.4834 14.2822L15.708 15.4971L15.709 15.498L30.9853 30.665L31.1816 30.8594L31.25 31.127L34.0478 42.0596C34.241 42.8144 34.018 43.6129 33.4668 44.1602C32.9156 44.7073 32.1184 44.9223 31.3682 44.7334L31.3672 44.7334L20.3545 41.9521L20.0889 41.8857L19.8955 41.6924L11.1992 33.0586L11.1992 46.8271C11.1992 47.4657 11.7266 48 12.3877 48L45.8115 48C46.4726 48 47 47.4656 47 46.8271L47 16.9717L34.624 16.9717C32.5997 16.9717 30.9424 15.3345 30.9424 13.3076L30.9424 0.999999L12.3877 0.999997Z" stroke="#B29037" stroke-width="2"/>
<path d="M31.1353 1L47.424 16.5" stroke="#B29037" stroke-width="2"/>
<path d="M7.6272 21.9131L22.8577 37.0332L27.4827 38.2012L26.3108 33.623L26.2385 33.5518L25.97 33.8174L24.8655 34.915L24.1604 35.6143L23.4563 34.915L9.3938 20.957L8.99243 20.5576L7.6272 21.9131Z" stroke="#B29037" stroke-width="2"/>
</svg>
