<svg width="50" height="50" viewBox="0 0 50 50" fill="none" xmlns="http://www.w3.org/2000/svg">
<g clip-path="url(#clip0_4017_103)">
<path d="M50 14.9538H45M45 14.9538H42.5C37.5 10.0407 30 5.11831 25 10.0363M45 14.9538V34.6237M25 10.0363L17.4989 17.4166C17.3005 17.6118 17.2013 17.7094 17.1215 17.7958C15.3875 19.672 15.3882 22.5372 17.1232 24.4128C17.203 24.4991 17.3024 24.5967 17.5008 24.7917C17.6992 24.9867 17.7984 25.0843 17.8862 25.1627C19.7936 26.8674 22.706 26.8671 24.6128 25.1617C24.7005 25.0833 24.7997 24.9857 24.998 24.7907L27.499 22.331M25 10.0363C20 5.11831 12.5 10.0409 7.5 14.954H5M45 34.6237V42H50M45 34.6237H37.929M5 14.954H0M5 14.954V34.6237M5 34.6237H10L10.9549 36.5022C12.2391 39.0281 15.7771 39.3418 17.5 37.0825C18.8631 38.4233 19.5447 39.0935 20.28 39.452C21.6788 40.1336 23.3212 40.1336 24.72 39.452C25.4552 39.0935 26.137 38.4233 27.5 37.0825L28.75 38.3119C28.949 38.5076 29.0488 38.6057 29.1368 38.6846C31.044 40.3895 33.956 40.3895 35.8633 38.6846C35.9513 38.6057 36.051 38.5076 36.25 38.3119C36.449 38.1162 36.5488 38.0183 36.6288 37.9315C38.3623 36.056 38.3623 33.1918 36.6288 31.3162C36.5488 31.2294 36.449 31.1316 36.25 30.9356L32.5 27.2475M5 34.6237V42H0" stroke="#B29037" stroke-width="3" stroke-linecap="round" stroke-linejoin="round"/>
</g>
<defs>
<clipPath id="clip0_4017_103">
<rect width="50" height="50" fill="white"/>
</clipPath>
</defs>
</svg>
