<svg width="50" height="50" viewBox="0 0 50 50" fill="none" xmlns="http://www.w3.org/2000/svg">
<path fill-rule="evenodd" clip-rule="evenodd" d="M18.3338 0.665659C18.761 0.239454 19.3403 0 19.9444 0H38.1667C41.9407 0 45 3.05261 45 6.81818V43.1818C45 46.9475 41.9407 50 38.1667 50H10.8333C7.0594 50 4 46.9475 4 43.1818V15.9091C4 15.3063 4.23999 14.7282 4.66714 14.302L18.3338 0.665659ZM38.1667 4.54545H22.2222V15.9091C22.2222 17.1643 21.2025 18.1818 19.9444 18.1818H8.55556V43.1818C8.55556 44.437 9.57536 45.4545 10.8333 45.4545H38.1667C39.4247 45.4545 40.4444 44.437 40.4444 43.1818V6.81818C40.4444 5.563 39.4247 4.54545 38.1667 4.54545ZM11.7768 13.6364H17.6667V7.75957L11.7768 13.6364ZM13.1111 27.2727C13.1111 26.0175 14.1309 25 15.3889 25H33.6111C34.8691 25 35.8889 26.0175 35.8889 27.2727C35.8889 28.528 34.8691 29.5455 33.6111 29.5455H15.3889C14.1309 29.5455 13.1111 28.528 13.1111 27.2727ZM13.1111 36.3636C13.1111 35.1084 14.1309 34.0909 15.3889 34.0909H33.6111C34.8691 34.0909 35.8889 35.1084 35.8889 36.3636C35.8889 37.6189 34.8691 38.6364 33.6111 38.6364H15.3889C14.1309 38.6364 13.1111 37.6189 13.1111 36.3636Z" fill="#B29037"/>
</svg>
