<svg width="50" height="54" viewBox="0 0 50 54" fill="none" xmlns="http://www.w3.org/2000/svg">
<path d="M40.8199 12.6345C42.3891 14.2402 43.1735 15.0431 43.5869 16.0641C44 17.085 44 18.2204 44 20.4912V40.8889C44 46.1267 44 48.7456 42.41 50.3728C40.8199 52 38.2609 52 33.1429 52H16.8571C11.739 52 9.17998 52 7.59 50.3728C6 48.7456 6 46.1267 6 40.8889V13.1111C6 7.87328 6 5.25436 7.59 3.62719C9.17998 2 11.739 2 16.8571 2H25.9313C28.1502 2 29.2598 2 30.2573 2.42289C31.2551 2.84578 32.0395 3.64864 33.6086 5.25436L40.8199 12.6345Z" stroke="#B29037" stroke-width="3" stroke-linejoin="round"/>
<path d="M16 32.33L20.4687 36.5333C21.1303 37.1556 22.203 37.1556 22.8646 36.5333L33 27" stroke="#B29037" stroke-width="3" stroke-linecap="round" stroke-linejoin="round"/>
</svg>
