<svg width="50" height="50" viewBox="0 0 50 50" fill="none" xmlns="http://www.w3.org/2000/svg">
<path d="M49.5877 20.4659C49.4256 19.5797 48.5756 18.9924 47.6896 19.1549C46.8035 19.3171 46.2166 20.1668 46.3787 21.053C47.669 28.1054 45.4257 35.3295 40.3776 40.3775C36.2772 44.478 30.8157 46.7363 24.9995 46.7363C19.7319 46.7363 14.7554 44.8839 10.8173 41.4883L13.0815 39.2241C13.9947 38.3109 13.5307 36.7499 12.2747 36.4769L3.43221 34.5546C2.27247 34.3029 1.23997 35.3364 1.49182 36.495L3.41404 45.3372C3.68826 46.5987 5.25189 47.0536 6.16125 46.1441L8.50611 43.7992C13.0644 47.8076 18.8599 49.9984 24.9995 49.9984C31.6871 49.9984 37.9677 47.4008 42.6843 42.6841C48.4903 36.8782 51.071 28.5724 49.5877 20.4659ZM5.96721 41.7247L5.21849 38.2811L8.66216 39.0298L5.96721 41.7247Z" fill="#B29037"/>
<path d="M48.5072 13.5035L46.5849 4.66103C46.3117 3.40402 44.7501 2.94144 43.8377 3.85421L41.4928 6.19908C36.9344 2.19087 31.1389 0 24.9995 0C18.3118 0 12.0312 2.5976 7.31462 7.31428C1.5087 13.12 -1.072 21.4261 0.411269 29.5325C0.573472 30.4194 1.42394 31.0055 2.30937 30.8434C3.19548 30.6813 3.78238 29.8315 3.62028 28.9453C2.32997 21.893 4.57338 14.6688 9.62141 9.62087C13.7219 5.52038 19.1834 3.26203 24.9996 3.26203C30.2671 3.26203 35.2437 5.11443 39.1818 8.51006L36.9176 10.7743C36.0044 11.6874 36.4683 13.2484 37.7244 13.5215L46.5668 15.4437C47.7307 15.6968 48.7581 14.6578 48.5072 13.5035ZM41.3368 10.9685L44.0318 8.27344L44.7806 11.717L41.3368 10.9685Z" fill="#B29037"/>
<path d="M39.0158 20.4214L25.967 10.6348C25.3871 10.1999 24.5896 10.1999 24.0097 10.6348L10.9608 20.4214C9.71181 21.3582 10.3747 23.3574 11.9395 23.3574H13.5706V34.7751C13.5706 35.6758 14.3009 36.4062 15.2017 36.4062H34.775C35.6758 36.4062 36.4061 35.6759 36.4061 34.7751V23.3574H38.0372C39.5984 23.3574 40.2677 21.3603 39.0158 20.4214ZM33.1438 33.144H16.8328V23.3574H33.1439V33.144H33.1438ZM16.8328 20.0951L24.9883 13.9785L33.1438 20.0951H16.8328Z" fill="#B29037"/>
</svg>
