<svg width="54" height="52" viewBox="0 0 54 52" fill="none" xmlns="http://www.w3.org/2000/svg">
<path d="M4.94747 9.42341C5.51605 9.42341 5.97698 8.95415 5.97698 8.37528C5.97698 7.79641 5.51605 7.32715 4.94747 7.32715C4.37889 7.32715 3.91797 7.79641 3.91797 8.37528C3.91797 8.95415 4.37889 9.42341 4.94747 9.42341Z" fill="#B29037"/>
<path d="M15.4214 20.608H13.5185C10.1984 20.608 7.01427 21.9508 4.66659 24.341C2.31891 26.7311 1 29.9729 1 33.3531V35.3138C1.00022 37.645 1.62888 39.9313 2.81748 41.9238C4.00608 43.9163 5.70902 45.5384 7.74074 46.6134V51H13.5185L14.4815 49.0392C14.8899 49.0768 34.7037 49.0392 34.7037 49.0392L35.6667 51H40.4815V47.0785C44.8046 45.3549 48.2877 42.036 49.1481 37.2746L53 35.3138V28.4511H48.1852C46.9422 25.8261 44.9213 23.6646 42.4074 22.2713V15.7061C40.796 15.6808 39.2117 16.13 37.845 16.9996C36.4784 17.8692 35.3875 19.1223 34.7037 20.608H30.9009" stroke="#B29037" stroke-width="1.5" stroke-linecap="round" stroke-linejoin="round"/>
<path d="M40.9625 29.4314C41.7603 29.4314 42.407 28.773 42.407 27.9608C42.407 27.1486 41.7603 26.4902 40.9625 26.4902C40.1648 26.4902 39.5181 27.1486 39.5181 27.9608C39.5181 28.773 40.1648 29.4314 40.9625 29.4314Z" fill="#B29037"/>
<path d="M11.5923 24.5293H34.7034" stroke="#B29037" stroke-width="1.5" stroke-linecap="round" stroke-linejoin="round"/>
<path d="M23.1477 24.5286C28.466 24.5286 32.7773 20.1393 32.7773 14.7248C32.7773 9.31024 28.466 4.9209 23.1477 4.9209C17.8294 4.9209 13.5181 9.31024 13.5181 14.7248C13.5181 20.1393 17.8294 24.5286 23.1477 24.5286Z" stroke="#B29037" stroke-width="1.5" stroke-linecap="round" stroke-linejoin="round"/>
<path d="M27.0001 9.82324L19.2964 19.6271" stroke="#B29037" stroke-width="1.5" stroke-linecap="round" stroke-linejoin="round"/>
<path d="M19.7779 12.7644C20.5757 12.7644 21.2224 12.106 21.2224 11.2938C21.2224 10.4816 20.5757 9.82324 19.7779 9.82324C18.9802 9.82324 18.3335 10.4816 18.3335 11.2938C18.3335 12.106 18.9802 12.7644 19.7779 12.7644Z" stroke="#B29037" stroke-width="1.5" stroke-linecap="round" stroke-linejoin="round"/>
<path d="M26.5187 19.6277C27.3164 19.6277 27.9631 18.9693 27.9631 18.1571C27.9631 17.3449 27.3164 16.6865 26.5187 16.6865C25.7209 16.6865 25.0742 17.3449 25.0742 18.1571C25.0742 18.9693 25.7209 19.6277 26.5187 19.6277Z" stroke="#B29037" stroke-width="1.5" stroke-linecap="round" stroke-linejoin="round"/>
<path d="M37.5924 4.92155C38.6561 4.92155 39.5184 4.04368 39.5184 2.96077C39.5184 1.87787 38.6561 1 37.5924 1C36.5288 1 35.6665 1.87787 35.6665 2.96077C35.6665 4.04368 36.5288 4.92155 37.5924 4.92155Z" stroke="#B29037" stroke-width="1.5" stroke-linecap="round" stroke-linejoin="round"/>
<path d="M24.3518 44.2026L29.086 40.3466C29.4585 40.0568 29.719 39.6429 29.8219 39.1772C29.9248 38.7115 29.8635 38.2239 29.6488 37.7996C29.5129 37.5499 29.325 37.3335 29.0984 37.1655C28.8718 36.9974 28.6118 36.8817 28.3368 36.8264C28.0617 36.7712 27.7781 36.7777 27.5057 36.8456C27.2334 36.9134 26.9789 37.0409 26.76 37.2193L25.0748 38.5918V30.9071C25.0748 30.387 24.8719 29.8883 24.5107 29.5206C24.1495 29.1529 23.6596 28.9463 23.1488 28.9463C22.6381 28.9463 22.1482 29.1529 21.787 29.5206C21.4258 29.8883 21.2229 30.387 21.2229 30.9071V38.5922L19.6377 37.301C19.2263 36.9589 18.6998 36.7941 18.1706 36.8419C17.6415 36.8897 17.1517 37.1463 16.8059 37.5568C16.4992 37.9639 16.3615 38.4772 16.4223 38.9864C16.483 39.4957 16.7374 39.9605 17.1308 40.281L21.9456 44.2026C22.2871 44.4807 22.7114 44.6322 23.1487 44.6322C23.586 44.6322 24.0103 44.4807 24.3518 44.2026Z" stroke="#B29037" stroke-width="1.5" stroke-linecap="round" stroke-linejoin="round"/>
<path d="M43.9009 7.91602L46.7898 10.8572" stroke="#B29037" stroke-width="1.5" stroke-linecap="round" stroke-linejoin="round"/>
<path d="M46.7898 7.91602L43.9009 10.8572" stroke="#B29037" stroke-width="1.5" stroke-linecap="round" stroke-linejoin="round"/>
</svg>
