<svg width="50" height="50" viewBox="0 0 50 50" fill="none" xmlns="http://www.w3.org/2000/svg">
<path d="M9.17952 49.9854C6.54633 49.9072 4.53272 47.7187 4.61016 45.1003C4.68761 42.5991 6.70122 40.606 9.14079 40.5278C9.56675 40.4887 9.91526 40.8404 9.95398 41.2703C9.95398 41.7002 9.6442 42.0519 9.21824 42.091C7.55314 42.1301 6.23654 43.4979 6.1591 45.1784C6.12037 46.9371 7.47569 48.3831 9.21824 48.4612C9.29569 48.4612 21.5323 48.2658 26.7986 48.2267C31.4454 48.1877 35.8599 46.1164 39.1901 42.3646C39.3063 41.3876 39.2288 37.3232 39.1901 33.3369C39.1514 30.6403 39.1127 27.592 39.1127 24.6609C30.1288 20.0103 25.1723 12.8976 24.785 4.10438C24.7076 2.18942 23.391 1.52504 22.3455 1.56412C21.2999 1.6032 20.1382 2.26758 20.1382 3.63541C20.1382 6.01935 20.1769 6.60556 20.2157 7.73891C20.2544 8.3642 20.2544 9.10674 20.2931 10.3964C20.3706 13.8746 22.268 17.3919 22.3067 17.431L22.9263 18.6034H4.72633C3.0225 18.6425 1.66719 20.0494 1.58974 21.769C1.55102 23.5667 2.94506 25.0908 4.72633 25.1299C5.15229 25.1299 5.5008 25.5207 5.46208 25.9506C5.46208 26.3805 5.07484 26.7322 4.64889 26.6932C2.0157 26.615 -0.0753629 24.3874 0.00208382 21.6908C0.0795305 19.1505 2.13187 17.0792 4.64889 17.0011H20.2931C19.6735 15.5942 18.7055 13.0539 18.6667 10.4355C18.628 9.1849 18.5893 8.40328 18.5893 7.81707C18.5506 6.64464 18.5118 6.05843 18.5118 3.63541C18.5118 1.32964 20.4093 0.039968 22.2293 0.000887117C24.088 -0.0381938 26.1403 1.2124 26.2565 4.0653C26.6437 12.5459 31.3293 19.0724 40.1582 23.5276L40.5841 23.7621V24.1529C40.5841 27.2403 40.6229 30.4449 40.6616 33.2978C40.739 39.7462 40.739 42.2474 40.5841 42.8727L40.5454 43.0681L40.4293 43.2244C36.7893 47.406 31.9101 49.7509 26.7212 49.79C21.5323 49.79 9.29569 49.9854 9.17952 49.9854Z" fill="#B29037"/>
<path d="M47.9476 49.9998H41.171C40.048 49.9998 39.1187 49.0619 39.1187 47.9285V21.4316C39.1187 20.2983 40.048 19.3604 41.171 19.3604H47.9476C49.0706 19.3604 49.9999 20.2983 49.9999 21.4316V47.9285C49.9612 49.0619 49.0706 49.9998 47.9476 49.9998ZM41.171 20.9236C40.8999 20.9236 40.6676 21.1581 40.6676 21.4316V47.9285C40.6676 48.2021 40.8999 48.4366 41.171 48.4366H47.9476C48.2186 48.4366 48.451 48.2021 48.451 47.9285V21.4316C48.451 21.1581 48.2186 20.9236 47.9476 20.9236H41.171Z" fill="#B29037"/>
<path d="M7.01703 34.6018C5.93277 34.6018 4.84852 34.1719 3.95788 33.3903C2.87363 32.4523 2.21533 31.1236 2.21533 29.7948C2.21533 27.0592 3.68682 25.3396 5.11958 25.066C5.54554 24.9879 5.93277 25.2614 6.01022 25.6913C6.08767 26.1212 5.8166 26.512 5.39065 26.5902C4.73235 26.7074 3.72554 27.8017 3.72554 29.7948C3.72554 30.6546 4.19022 31.5144 4.92597 32.1788C5.66171 32.8041 6.55235 33.1167 7.36554 32.9604C7.79149 32.8822 8.17873 33.1949 8.25617 33.6248C8.33362 34.0547 8.02383 34.4455 7.59788 34.5236C7.44298 34.5627 7.21064 34.6018 7.01703 34.6018Z" fill="#B29037"/>
<path d="M9.03044 42.1055C7.4815 42.1055 6.04874 41.6365 5.08065 40.7767C4.19002 39.9951 3.72534 38.979 3.64789 37.7675C3.493 35.4617 5.11938 33.3904 7.40406 32.9996C7.83001 32.9215 8.21725 33.195 8.29469 33.6249C8.37214 34.0548 8.06235 34.4456 7.67512 34.5238C6.16491 34.7974 5.11938 36.1261 5.23555 37.6503C5.27427 38.4319 5.58406 39.0572 6.12619 39.5652C6.93938 40.2687 8.21725 40.6204 9.61129 40.5032C10.0372 40.4641 10.4245 40.7767 10.4632 41.2066C10.5019 41.6365 10.1921 42.0273 9.76618 42.0664C9.49512 42.1055 9.26278 42.1055 9.03044 42.1055Z" fill="#B29037"/>
</svg>
